<svg version="1.1" xmlns="http://www.w3.org/2000/svg" xmlns:xlink="http://www.w3.org/1999/xlink" width="251" height="242.968" viewBox="0,0,251,242.968"><defs><radialGradient cx="240.00002" cy="180" r="125.5" gradientUnits="userSpaceOnUse" id="color-1"><stop offset="0" stop-color="#3d6666"/><stop offset="1" stop-color="#3d6666" stop-opacity="0"/></radialGradient><linearGradient x1="240.00002" y1="84.756" x2="240.00002" y2="275.244" gradientUnits="userSpaceOnUse" id="color-2"><stop offset="0" stop-color="#99feff"/><stop offset="1" stop-color="#ffffff"/></linearGradient></defs><g transform="translate(-114.50001,-58.516)"><g data-paper-data="{&quot;isPaintingLayer&quot;:true}" fill-rule="nonzero" stroke-linecap="butt" stroke-linejoin="miter" stroke-miterlimit="10" stroke-dasharray="" stroke-dashoffset="0" style="mix-blend-mode: normal"><path d="M365.50001,180c0,67.09377 -56.18827,121.484 -125.5,121.484c-69.31173,0 -125.5,-54.39023 -125.5,-121.484c0,-67.09377 56.18827,-121.484 125.5,-121.484c69.31173,0 125.5,54.39023 125.5,121.484z" data-paper-data="{&quot;origPos&quot;:null}" fill="url(#color-1)" stroke="none" stroke-width="0"/><path d="M144.75602,180c0,-52.60178 42.64222,-95.244 95.244,-95.244c52.60178,0 95.244,42.64222 95.244,95.244c0,52.60178 -42.64222,95.244 -95.244,95.244c-52.60178,0 -95.244,-42.64222 -95.244,-95.244z" data-paper-data="{&quot;origPos&quot;:null}" fill="url(#color-2)" stroke="#3c6565" stroke-width="2"/></g></g></svg>