<svg version="1.1" xmlns="http://www.w3.org/2000/svg" xmlns:xlink="http://www.w3.org/1999/xlink" width="548" height="199.4023" viewBox="0,0,548,199.4023"><g transform="translate(27.49999,-171.5977)"><g data-paper-data="{&quot;isPaintingLayer&quot;:true}" fill-rule="nonzero" stroke-linejoin="miter" stroke-miterlimit="10" stroke-dasharray="" stroke-dashoffset="0" style="mix-blend-mode: normal"><path d="M-21.99998,365.5v-9h537v9c0,0 -167.606,0 -274.2829,0c-102.89426,0 -262.7171,0 -262.7171,0z" fill="none" stroke="#ff9200" stroke-width="11" stroke-linecap="butt"/><path d="M43.26564,359.05087l197,-180l189,173" fill="none" stroke="#ff9200" stroke-width="11" stroke-linecap="round"/><path d="M252.71876,188.95712c15.5839,11.1276 12.41169,34.2066 1.22454,46.77142c-2.00109,2.24752 -2.93836,4.07529 -4.71453,6.29775c-3.23285,4.04517 -7.67385,7.29656 -11.1708,11.12033c-1.55243,1.69752 -2.45904,4.1033 -4.01632,5.70384c-6.02145,6.18871 -16.14957,11.46653 -23.33115,16.61675c-3.55641,2.55045 -5.9493,5.98125 -9.46945,8.54679c-1.83759,1.33927 -4.14533,2.06336 -6.04818,3.46497c-5.90804,4.35176 -10.91437,10.21479 -16.24957,15.24957c-4.95752,4.67836 -10.39519,9.2566 -15.70225,13.28547c-2.29325,1.74093 -5.46823,2.53151 -7.42906,4.84584c-2.48149,2.92885 -3.96768,6.85135 -6.38277,9.83034c-10.80417,13.32684 -27.48744,34.85495 -46.56114,33.51645c-19.22763,-1.34931 -30.02273,-22.9395 -19.5656,-39.13119c3.5541,-5.50313 8.02936,-6.96178 13.04416,-10.01593c2.68829,-1.63725 5.25227,-5.26457 7.44369,-7.48922c5.54389,-5.62794 8.40663,-13.45515 13.79762,-19.19709c5.43782,-5.79182 12.31883,-11.47955 18.70225,-16.28547c2.86277,-2.15531 6.33211,-3.91293 9.04818,-6.46497c4.20718,-3.9531 7.99595,-8.38509 12.24957,-12.24956c8.37576,-7.60949 18.06133,-14.17565 27.2328,-20.73868c4.39801,-3.14718 9.02446,-7.70969 13.74355,-10.23242c1.14562,-0.61243 2.43375,-3.29346 3.39187,-4.25226c2.29705,-2.29867 4.88224,-4.26871 7.03095,-6.75062c1.07483,-1.2415 1.35309,-3.08867 2.31535,-4.32378c0.73265,-0.94039 1.9823,-1.45299 2.56324,-2.49395c0.74747,-3.34924 2.16691,-6.44503 4.10945,-9.1385c4.53978,-6.29472 11.93662,-10.39212 20.29046,-10.39212c3.13655,0 6.13819,0.57762 8.90435,1.63228c1.99787,0.44466 3.89822,1.0954 5.54878,2.27397z" fill="#ff9200" stroke="none" stroke-width="0.5" stroke-linecap="butt"/><path d="M422.58091,356.67738c-5.62651,10.31527 -15.94179,4.68876 -15.94179,4.68876l0.91084,-0.16824c-2.49824,-0.83275 -4.57566,-2.51279 -6.50729,-4.3991c-1.40435,-0.02614 -2.74845,-0.29865 -3.9909,-0.77613c-0.80349,-0.27299 -1.65214,-0.64175 -2.47876,-1.13988c-5.14201,4.37705 -12.12922,6.92476 -19.80123,6.49854c-2.24039,-0.12447 -4.3448,-0.99111 -6.37673,-2.05866c-2.45384,0.53816 -4.92499,1.01087 -7.33335,1.54859c-4.84054,1.08076 -10.53126,3.14034 -15.79607,3.17961c-7.99978,0.05967 -16.00034,0.07413 -24,0c-3.92456,-0.03637 -7.89462,-1.99067 -11.65277,-2c-7.89813,-0.01961 -15.79824,-0.17486 -23.69445,0c-3.79918,0.08413 -8.02838,0.98457 -11.74652,1.60938c-9.06819,1.52383 -18.68309,1.22423 -27.82861,1.39062c-2.32748,0.04235 -4.70166,0.95374 -7.07764,1c-15.05006,0.29305 -27.21856,-1.41957 -43.49788,-1c-2.77977,0.07164 -9.92702,1.99285 -13.59587,2.60938c-7.61584,1.27978 -18.90972,0.21629 -24.88738,0.39063c-2.2222,0.06481 -4.92342,1.15853 -7.41642,1.15576c-12.67468,-0.01408 -22.1206,-8.42224 -25.30775,-20.21471c-0.45297,-1.67597 -0.09589,-4.57056 0.08703,-6.3535c1.06017,-10.33317 4.27792,-13.4295 10.19016,-21.5148c3.19946,-4.37543 5.82904,-9.11934 9.01176,-13.51764c9.05652,-12.5155 21.20746,-18.46592 32.71776,-29.21188c4.56245,-4.25949 7.02318,-7.87422 11.02092,-12.02092c5.05592,-5.24431 9.76708,-10.98737 14.90165,-16.12193c2.83147,-2.83147 6.34211,-4.16661 9.54256,-6.32228c2.90314,-1.95542 4.91039,-4.52016 8.05312,-6.2388c2.40127,-1.31317 4.79763,-2.45624 7.19629,-3.39983c-0.79526,-1.15274 -1.52197,-2.34983 -2.15171,-3.60931l-2.86424,-11.63018c0.0957,-12.6552 9.14286,-22.06141 19.92573,-24.48472c6.23456,-1.40114 13.04937,-0.46785 19.0497,3.52158c6.23447,4.14511 11.6054,11.60921 16.28894,17.46363c0.68618,0.85773 1.36832,2.49498 2.27541,3.25046c2.99055,2.49073 5.43579,5.19892 8.38746,7.82093c1.80383,1.60237 4.29297,2.01691 6.04819,3.46497c4.23874,3.49696 9.06618,8.42948 12.70224,12.28547c6.60185,7.00115 11.96678,14.49833 19.13131,21.13131c6.11358,5.65999 16.62042,9.18275 23.16645,14.58322c5.49664,4.53473 8.99548,11.27945 14.83355,15.41678c3.84717,2.72641 8.12484,4.37869 11.83034,7.38277c2.32836,1.88762 5.00378,5.79252 7.38982,7.339c8.22189,5.32889 15.48898,10.5443 18.72908,20.3128c0.52805,1.59201 0.8885,3.17398 1.09356,4.73387c2.77837,-0.04824 6.21926,-0.01374 7.86389,1.63089c1.25871,1.25871 2.47699,2.5582 3.66306,3.88713c0.10845,0.03648 0.22078,0.07415 0.33694,0.11287l2.91084,1.83176c0,0 10.31527,5.62651 4.68876,15.94179z" fill="#ff9200" stroke="none" stroke-width="0.5" stroke-linecap="butt"/><path d="M56.20017,353.00282c-3.95195,-11.06547 7.11351,-15.01742 7.11351,-15.01742l2.23628,-1.08156c4,-1.33333 8,-2.66667 12,-4c0,0 11.14703,-3.71568 14.86271,7.43135c3.71568,11.14703 -7.43135,14.86271 -7.43135,14.86271c-4,1.33333 -8,2.66667 -12,4l-1.76372,0.91844c0,0 -11.06547,3.95195 -15.01742,-7.11351z" fill="#ff9200" stroke="none" stroke-width="0.5" stroke-linecap="butt"/></g></g></svg>