<svg version="1.1" xmlns="http://www.w3.org/2000/svg" xmlns:xlink="http://www.w3.org/1999/xlink" width="77" height="74.536"><defs><radialGradient cx="240.00001" cy="180" r="38.5" gradientUnits="userSpaceOnUse" id="color-1"><stop offset="0" stop-color="#9fae00" stop-opacity="0"/><stop offset="1" stop-color="#9fae00"/></radialGradient><radialGradient cx="238.93163" cy="179.692" r="18.788" gradientUnits="userSpaceOnUse" id="color-2"><stop offset="0" stop-color="#fdff00"/><stop offset="1" stop-color="#ffffff"/></radialGradient></defs><g transform="translate(-201.50001,-142.732)"><g data-paper-data="{&quot;isPaintingLayer&quot;:true}" fill-rule="nonzero" stroke="none" stroke-width="0" stroke-linecap="butt" stroke-linejoin="miter" stroke-miterlimit="10" stroke-dasharray="" stroke-dashoffset="0" style="mix-blend-mode: normal"><path d="M278.50001,180c0,20.58255 -17.23704,37.268 -38.5,37.268c-21.26296,0 -38.5,-16.68545 -38.5,-37.268c0,-20.58255 17.23704,-37.268 38.5,-37.268c21.26296,0 38.5,16.68545 38.5,37.268z" data-paper-data="{&quot;origPos&quot;:null}" fill="url(#color-1)"/><path d="M221.21201,180c0,-10.37632 8.41168,-18.788 18.788,-18.788c10.37632,0 18.788,8.41168 18.788,18.788c0,10.37632 -8.41168,18.788 -18.788,18.788c-10.37632,0 -18.788,-8.41168 -18.788,-18.788z" data-paper-data="{&quot;origPos&quot;:null}" fill="url(#color-2)"/></g></g></svg>