<svg version="1.1" xmlns="http://www.w3.org/2000/svg" xmlns:xlink="http://www.w3.org/1999/xlink" width="1251.6216" height="472.45152" viewBox="0,0,1251.6216,472.45152"><g transform="translate(149.19369,102.95302)"><g data-paper-data="{&quot;isPaintingLayer&quot;:true}" fill="none" fill-rule="nonzero" stroke-width="11" stroke-linecap="butt" stroke-linejoin="miter" stroke-miterlimit="10" stroke-dasharray="" stroke-dashoffset="0" style="mix-blend-mode: normal"><path d="M11.28606,363.9985v-9h537v9c0,0 -167.606,0 -274.2829,0c-102.89426,0 -262.7171,0 -262.7171,0z" stroke="#ed1e2c"/><path d="M559.92791,362.99249v-9h537v9c0,0 -167.606,0 -274.2829,0c-102.89426,0 -262.7171,0 -262.7171,0z" stroke="#000000"/><path d="M327.19446,304.98166v3.79129h-60.06006v-3.79129z" stroke="#ff0000"/><path d="M516.87916,39.71139v3.79129h-60.06007v-3.79129z" stroke="#ed1e2c"/><path d="M605.49552,-97.45302v3.79129h-60.06007v-3.79129z" stroke="#ed1e2c"/><path d="M434.79206,182.84953v3.79129h-60.06006v-3.79129z" stroke="#ef1c2c"/><path d="M423.6209,-89.79237v3.79129h-567.31459v-3.79129z" stroke="#000000"/></g></g></svg>