<svg version="1.1" xmlns="http://www.w3.org/2000/svg" xmlns:xlink="http://www.w3.org/1999/xlink" width="699.03125" height="416.58844" viewBox="0,0,699.03125,416.58844"><g transform="translate(101.53123,-50.20578)"><g data-paper-data="{&quot;isPaintingLayer&quot;:true}" fill-rule="nonzero" stroke-width="11" stroke-linecap="butt" stroke-linejoin="miter" stroke-miterlimit="10" stroke-dasharray="" stroke-dashoffset="0" style="mix-blend-mode: normal"><path d="M-26.99998,320.50001v-9h537v9c0,0 -167.606,0 -274.2829,0c-102.89426,0 -262.7171,0 -262.7171,0z" fill="none" stroke="#ff9c00"/><path d="M277.4375,302.70579v-247h33v247z" fill="#ff0000" stroke="#ff0000"/><path d="M-96.03122,439.73173v-8.4375c0,0 202.1792,23.4375 332.40426,23.4375c138.28798,0 355.62699,-23.4375 355.62699,-23.4375v8.4375c0,0 -216.02644,21.5625 -352.70622,21.5625c-131.83327,0 -335.32503,-21.5625 -335.32503,-21.5625z" fill="#1a1a1a" stroke="#121212"/><path d="M106.86028,242.04887v-27h132v27z" fill="#0057ff" stroke="#0057ff"/><path d="M39.86028,136v-18h114v18z" fill="#0057ff" stroke="#0057ff"/></g></g></svg>