<svg xmlns="http://www.w3.org/2000/svg" xmlns:xlink="http://www.w3.org/1999/xlink" version="1.1" width="51.599998474121094" height="27.5" viewBox="0.25 0.04999995231628418 51.599998474121094 27.5">
  <!-- Exported by Scratch - http://scratch.mit.edu/ -->
  <g id="ID0.7203339748084545">
    <path id="ID0.08161163376644254" fill="#FFFFFF" stroke="#000000" stroke-width="3" d="M 14 1.55 C 17.38 1.55 20.442 2.923 22.66 5.14 C 24.877 7.358 26.25 10.42 26.25 13.8 C 26.25 17.18 24.877 20.242 22.66 22.46 C 20.442 24.677 17.38 26.05 14 26.05 C 10.62 26.05 7.558 24.677 5.34 22.46 C 3.123 20.242 1.75 17.18 1.75 13.8 C 1.75 10.42 3.123 7.358 5.34 5.14 C 7.558 2.923 10.62 1.55 14 1.55 Z "/>
    <path id="ID0.13923896756023169" fill="none" stroke="#000000" stroke-width="3" stroke-linecap="round" d="M 19.1 2.4 L 36.65 12.9 "/>
    <path id="ID0.2729104966856539" fill="none" stroke="#000000" stroke-width="3" stroke-linecap="round" d="M 19 25.15 L 36.95 18.7 "/>
    <path id="ID0.16589416423812509" fill="#3A3A3A" stroke="none" d="M 31.85 13 L 50.35 13 L 50.35 18.85 L 31.85 18.85 L 31.85 13 Z " stroke-width="1"/>
  </g>
</svg>