<svg xmlns="http://www.w3.org/2000/svg" xmlns:xlink="http://www.w3.org/1999/xlink" version="1.1" width="51.45000076293945" height="27.5" viewBox="0.25 0.04999995231628418 51.45000076293945 27.5">
  <!-- Exported by Scratch - http://scratch.mit.edu/ -->
  <path id="ID0.4444419676437974" fill="none" stroke="#3A3A3A" stroke-width="2" stroke-linecap="round" d="M 42.9 18.15 C 42.9 18.15 42.539 19.617 42.05 20.15 C 41.567 20.677 40.789 20.83 40.15 21.15 C 39.524 21.463 38.928 21.876 38.25 22.05 C 37.604 22.216 36.914 22.216 36.25 22.15 C 35.567 22.082 34.912 21.831 34.25 21.65 C 34.084 21.605 34.05 21.55 34.05 21.55 "/>
  <path id="ID0.8835110608488321" fill="none" stroke="#3A3A3A" stroke-width="2" stroke-linecap="round" d="M 42.3 12.55 C 42.3 12.55 41.271 11.6 40.7 11.2 C 40.151 10.815 39.573 10.449 38.95 10.2 C 38.313 9.945 37.628 9.81 36.95 9.7 C 36.291 9.593 34.95 9.55 34.95 9.55 "/>
  <path id="ID0.08161163376644254" fill="#FFFFFF" stroke="#000000" stroke-width="3" d="M 14 1.55 C 17.38 1.55 20.442 2.923 22.66 5.14 C 24.877 7.358 26.25 10.42 26.25 13.8 C 26.25 17.18 24.877 20.242 22.66 22.46 C 20.442 24.677 17.38 26.05 14 26.05 C 10.62 26.05 7.558 24.677 5.34 22.46 C 3.123 20.242 1.75 17.18 1.75 13.8 C 1.75 10.42 3.123 7.358 5.34 5.14 C 7.558 2.923 10.62 1.55 14 1.55 Z "/>
  <path id="ID0.13923896756023169" fill="none" stroke="#000000" stroke-width="3" stroke-linecap="round" d="M 19.1 2.4 L 36.65 12.9 "/>
  <path id="ID0.2729104966856539" fill="none" stroke="#000000" stroke-width="3" stroke-linecap="round" d="M 19 25.15 L 36.95 18.7 "/>
  <path id="ID0.16589416423812509" fill="#3A3A3A" stroke="none" d="M 32.1 12.5 L 50.2 12.6 L 50 19.5 L 32.1 19.9 L 32.1 12.5 Z " stroke-width="1"/>
</svg>