<svg version="1.1" xmlns="http://www.w3.org/2000/svg" xmlns:xlink="http://www.w3.org/1999/xlink" width="420.54897" height="197" viewBox="0,0,420.54897,197"><g transform="translate(-26.45103,-99)"><g data-paper-data="{&quot;isPaintingLayer&quot;:true}" fill-rule="nonzero" stroke-linejoin="miter" stroke-miterlimit="10" stroke-dasharray="" stroke-dashoffset="0" style="mix-blend-mode: normal"><text transform="translate(28.46478,159.25) scale(0.39166,0.39166)" font-size="40" xml:space="preserve" data-paper-data="{&quot;origPos&quot;:null}" fill="#000000" fill-rule="nonzero" stroke="none" stroke-width="1" stroke-linecap="butt" stroke-linejoin="miter" stroke-miterlimit="10" stroke-dasharray="" stroke-dashoffset="0" font-family="Sans Serif" font-weight="normal" text-anchor="start" style="mix-blend-mode: normal"><tspan x="0" dy="0">Max Inc PRESENTS...</tspan></text><text transform="translate(27.08023,206.25001) scale(1.2584,1.2584)" font-size="40" xml:space="preserve" data-paper-data="{&quot;origPos&quot;:null}" fill="#000000" fill-rule="nonzero" stroke="none" stroke-width="1" stroke-linecap="butt" stroke-linejoin="miter" stroke-miterlimit="10" stroke-dasharray="" stroke-dashoffset="0" font-family="Sans Serif" font-weight="normal" text-anchor="start" style="mix-blend-mode: normal"><tspan x="0" dy="0">Day Break Pro</tspan></text><path d="M314,233c13.25484,0 24,10.52131 24,23.5c0,12.97869 -10.74516,23.5 -24,23.5c-13.25484,0 -24,-10.52131 -24,-23.5c0,-12.97869 10.74516,-23.5 24,-23.5z" data-paper-data="{&quot;origPos&quot;:null}" fill="#009932" stroke="#000000" stroke-width="6" stroke-linecap="butt"/><path d="M304,235l-32,13" data-paper-data="{&quot;origPos&quot;:null}" fill="none" stroke="#000000" stroke-width="6" stroke-linecap="round"/><path d="M331,274l-29,19" data-paper-data="{&quot;origPos&quot;:null}" fill="none" stroke="#000000" stroke-width="6" stroke-linecap="round"/><path d="M112,238c13.25484,0 24,10.74516 24,24c0,13.25484 -10.74516,24 -24,24c-13.25483,0 -24,-10.74516 -24,-24c0,-13.25484 10.74517,-24 24,-24z" fill="#ffffff" stroke="#000000" stroke-width="6" stroke-linecap="butt"/><path d="M121,240l34,18" fill="none" stroke="#000000" stroke-width="6" stroke-linecap="round"/><path d="M117,285l35,-13" data-paper-data="{&quot;origPos&quot;:null}" fill="none" stroke="#000000" stroke-width="6" stroke-linecap="round"/><path d="M144,269v-7h30.8v7z" data-paper-data="{&quot;origPos&quot;:null}" fill="#595959" stroke="#595959" stroke-width="6" stroke-linecap="butt"/><path d="M185,264l20,1" fill="none" stroke="#fcff00" stroke-width="6" stroke-linecap="round"/><path d="M222,264l23,1" fill="none" stroke="#fcff00" stroke-width="6" stroke-linecap="round"/><path d="M420,211c13.25484,0 24,10.52131 24,23.5c0,12.97869 -10.74516,23.5 -24,23.5c-13.25484,0 -24,-10.52131 -24,-23.5c0,-12.97869 10.74516,-23.5 24,-23.5z" data-paper-data="{&quot;origPos&quot;:null}" fill="#cc7c00" stroke="#000000" stroke-width="6" stroke-linecap="butt"/><path d="M411,213l-32,13" data-paper-data="{&quot;origPos&quot;:null}" fill="none" stroke="#000000" stroke-width="6" stroke-linecap="round"/><path d="M436,252l-29,19" data-paper-data="{&quot;origPos&quot;:null}" fill="none" stroke="#000000" stroke-width="6" stroke-linecap="round"/><path d="M376,102c13.25484,0 24,10.52131 24,23.5c0,12.97869 -10.74516,23.5 -24,23.5c-13.25484,0 -24,-10.52131 -24,-23.5c0,-12.97869 10.74516,-23.5 24,-23.5z" data-paper-data="{&quot;origPos&quot;:null}" fill="#f7f800" stroke="#000000" stroke-width="6" stroke-linecap="butt"/><path d="M365,104l-32,13" data-paper-data="{&quot;origPos&quot;:null}" fill="none" stroke="#000000" stroke-width="6" stroke-linecap="round"/><path d="M393,143l-29,19" data-paper-data="{&quot;origPos&quot;:null}" fill="none" stroke="#000000" stroke-width="6" stroke-linecap="round"/></g></g></svg>