<svg version="1.1" xmlns="http://www.w3.org/2000/svg" xmlns:xlink="http://www.w3.org/1999/xlink" width="51.9225" height="27.5"><g transform="translate(-226.25,-166.05)"><g data-paper-data="{&quot;isPaintingLayer&quot;:true}" fill="none" fill-rule="nonzero" stroke="none" stroke-width="none" stroke-linecap="none" stroke-linejoin="miter" stroke-miterlimit="10" stroke-dasharray="" stroke-dashoffset="0" font-family="none" font-weight="none" font-size="none" text-anchor="none" style="mix-blend-mode: normal"><path d="M240,167.55c3.38,0 6.442,1.373 8.66,3.59c2.217,2.218 3.59,5.28 3.59,8.66c0,3.38 -1.373,6.442 -3.59,8.66c-2.218,2.217 -5.28,3.59 -8.66,3.59c-3.38,0 -6.442,-1.373 -8.66,-3.59c-2.217,-2.218 -3.59,-5.28 -3.59,-8.66c0,-3.38 1.373,-6.442 3.59,-8.66c2.218,-2.217 5.28,-3.59 8.66,-3.59z" id="ID0.08161163376644254" fill="#ffffff" stroke="#000000" stroke-width="3" stroke-linecap="butt"/><path d="M262.65,178.9l-17.55,-10.5" id="ID0.13923896756023169" fill="none" stroke="#000000" stroke-width="3" stroke-linecap="round"/><path d="M245,191.15l17.95,-6.45" id="ID0.2729104966856539" fill="none" stroke="#000000" stroke-width="3" stroke-linecap="round"/><path d="M257.85,179h20.3225v5.85h-20.3225z" data-paper-data="{&quot;origPos&quot;:null}" id="ID0.16589416423812509" fill="#3a3a3a" stroke="none" stroke-width="1" stroke-linecap="butt"/></g></g></svg>