<svg xmlns="http://www.w3.org/2000/svg" xmlns:xlink="http://www.w3.org/1999/xlink" version="1.1" width="51.25" height="27.5" viewBox="0.25 0.10000002384185791 51.25 27.5">
  <!-- Exported by Scratch - http://scratch.mit.edu/ -->
  <path id="ID0.4444419676437974" fill="none" stroke="#3A3A3A" stroke-width="2" stroke-linecap="round" d="M 42.9 18.2 C 42.9 18.2 42.539 19.667 42.05 20.2 C 41.567 20.727 40.789 20.88 40.15 21.2 C 39.524 21.513 38.928 21.926 38.25 22.1 C 37.604 22.266 36.914 22.266 36.25 22.2 C 35.567 22.132 34.912 21.881 34.25 21.7 C 34.084 21.655 34.05 21.6 34.05 21.6 "/>
  <path id="ID0.8835110608488321" fill="none" stroke="#3A3A3A" stroke-width="2" stroke-linecap="round" d="M 42.25 12.55 C 42.25 12.55 41.221 11.6 40.65 11.2 C 40.101 10.815 39.523 10.449 38.9 10.2 C 38.263 9.945 37.578 9.81 36.9 9.7 C 36.241 9.593 34.9 9.55 34.9 9.55 "/>
  <path id="ID0.08161163376644254" fill="#FFFFFF" stroke="#000000" stroke-width="3" d="M 14 1.6 C 17.38 1.6 20.442 2.973 22.66 5.19 C 24.877 7.408 26.25 10.47 26.25 13.85 C 26.25 17.23 24.877 20.292 22.66 22.51 C 20.442 24.727 17.38 26.1 14 26.1 C 10.62 26.1 7.558 24.727 5.34 22.51 C 3.123 20.292 1.75 17.23 1.75 13.85 C 1.75 10.47 3.123 7.408 5.34 5.19 C 7.558 2.973 10.62 1.6 14 1.6 Z "/>
  <path id="ID0.13923896756023169" fill="none" stroke="#000000" stroke-width="3" stroke-linecap="round" d="M 19.1 2.45 L 36.65 12.95 "/>
  <path id="ID0.2729104966856539" fill="none" stroke="#000000" stroke-width="3" stroke-linecap="round" d="M 19 25.2 L 36.95 18.75 "/>
  <path id="ID0.16589416423812509" fill="#3A3A3A" stroke="none" d="M 32.1 12.5 L 50 10 L 49.95 22.05 L 32.1 19.9 L 32.1 12.5 Z " stroke-width="1"/>
</svg>