<svg xmlns="http://www.w3.org/2000/svg" xmlns:xlink="http://www.w3.org/1999/xlink" version="1.1" width="54.29999923706055" height="54.29999923706055" viewBox="0.9000000953674316 0.9500000476837158 54.29999923706055 54.29999923706055">
  <!-- Exported by Scratch - http://scratch.mit.edu/ -->
  <path id="ID0.3867268990725279" fill="#FFFADE" stroke="#000000" stroke-width="4" d="M 2.9 2.95 L 53.2 2.95 L 53.2 53.25 L 2.9 53.25 L 2.9 2.95 Z "/>
  <path id="ID0.2859082077629864" fill="#CF7501" stroke="#CF7501" stroke-width="1.1824266834960124" d="M 16.6134 28.7959 C 17.4269 28.7959 18.1643 29.1277 18.6988 29.6639 C 19.2327 30.2006 19.5631 30.9413 19.5631 31.7583 C 19.5631 32.5753 19.2327 33.3159 18.6988 33.8527 C 18.1643 34.3889 17.4269 34.7207 16.6134 34.7207 C 15.7999 34.7207 15.0624 34.3889 14.528 33.8527 C 13.9941 33.3159 13.6637 32.5753 13.6637 31.7583 C 13.6637 30.9413 13.9941 30.2006 14.528 29.6639 C 15.0624 29.1277 15.7999 28.7959 16.6134 28.7959 Z "/>
  <path id="ID0.6709495121613145" fill="#CF7501" stroke="#CC7700" stroke-width="1.2205665111541748" d="M 7.5064 28.6952 L 16.3555 28.6952 L 16.3555 34.737 L 7.5064 34.737 L 7.5064 28.6952 Z "/>
  <path id="ID0.059100625570863485" fill="#B46603" stroke="none" d="M 6.9 34.1 L 16.75 34.1 L 16.75 35.4 L 6.9 35.4 L 6.9 34.1 Z " stroke-width="1"/>
  <path id="ID0.7237945105880499" fill="#B46603" stroke="none" d="M 6.9 33 L 16.9 33 L 16.9 34.5 L 6.9 34.5 L 6.9 33 Z " stroke-width="1"/>
  <path id="ID0.3554691867902875" fill="none" stroke="#B46603" stroke-width="1" stroke-linecap="round" d="M 16.65 34.7 C 16.804 34.729 17.426 34.601 17.75 34.45 C 18.048 34.292 18.3 34.05 18.55 33.8 C 18.75 33.5 18.75 33.1 18.95 32.8 C 19 32.6 19.3 32.25 19.3 32.25 C 19.7 32.4 19.387 33.111 19.2 33.45 C 19.037 33.745 18.905 34.079 18.65 34.3 C 18.385 34.529 18.036 34.651 17.7 34.75 C 17.46 34.821 16.946 34.821 16.95 34.8 Z "/>
  <path id="ID0.19690823648124933" fill="none" stroke="#B46603" stroke-width="1" stroke-linecap="round" d="M 16 33.9 C 16 33.9 17.006 33.839 17.5 33.75 C 17.842 33.688 18.17 33.56 18.5 33.45 C 18.67 33.393 19 33.25 19 33.25 "/>
  <path id="ID0.9434709856286645" fill="none" stroke="#B46603" stroke-width="1" stroke-linecap="round" d="M 16.75 33.3 C 16.75 33.3 17.498 33.306 17.85 33.2 C 18.178 33.101 18.465 32.89 18.75 32.7 C 19.016 32.523 19.5 32.1 19.5 32.1 "/>
  <path id="ID0.5868821502663195" fill="#A55E03" stroke="none" d="M 6.95 33.95 L 16.55 33.95 L 16.55 34.75 L 6.95 34.75 L 6.95 33.95 Z " stroke-width="1"/>
  <path id="ID0.2859082077629864" fill="#CF7501" stroke="#CF7501" stroke-width="1.1824266834960124" d="M 32.6634 18.8959 C 33.4769 18.8959 34.2143 19.2277 34.7488 19.7639 C 35.2827 20.3006 35.6131 21.0413 35.6131 21.8583 C 35.6131 22.6753 35.2827 23.4159 34.7488 23.9527 C 34.2143 24.4889 33.4769 24.8207 32.6634 24.8207 C 31.8499 24.8207 31.1124 24.4889 30.578 23.9527 C 30.0441 23.4159 29.7137 22.6753 29.7137 21.8583 C 29.7137 21.0413 30.0441 20.3006 30.578 19.7639 C 31.1124 19.2277 31.8499 18.8959 32.6634 18.8959 Z "/>
  <path id="ID0.6709495121613145" fill="#CF7501" stroke="#CC7700" stroke-width="1.2205665111541748" d="M 23.5564 18.7952 L 32.4055 18.7952 L 32.4055 24.837 L 23.5564 24.837 L 23.5564 18.7952 Z "/>
  <path id="ID0.059100625570863485" fill="#B46603" stroke="none" d="M 22.95 24.2 L 32.8 24.2 L 32.8 25.5 L 22.95 25.5 L 22.95 24.2 Z " stroke-width="1"/>
  <path id="ID0.7237945105880499" fill="#B46603" stroke="none" d="M 22.95 23.1 L 32.95 23.1 L 32.95 24.6 L 22.95 24.6 L 22.95 23.1 Z " stroke-width="1"/>
  <path id="ID0.3554691867902875" fill="none" stroke="#B46603" stroke-width="1" stroke-linecap="round" d="M 32.7 24.8 C 32.854 24.829 33.476 24.701 33.8 24.55 C 34.098 24.392 34.35 24.15 34.6 23.9 C 34.8 23.6 34.8 23.2 35 22.9 C 35.05 22.7 35.35 22.35 35.35 22.35 C 35.75 22.5 35.437 23.211 35.25 23.55 C 35.087 23.845 34.955 24.179 34.7 24.4 C 34.435 24.629 34.086 24.751 33.75 24.85 C 33.51 24.921 32.996 24.921 33 24.9 Z "/>
  <path id="ID0.19690823648124933" fill="none" stroke="#B46603" stroke-width="1" stroke-linecap="round" d="M 32.05 24 C 32.05 24 33.056 23.939 33.55 23.85 C 33.892 23.788 34.22 23.66 34.55 23.55 C 34.72 23.493 35.05 23.35 35.05 23.35 "/>
  <path id="ID0.9434709856286645" fill="none" stroke="#B46603" stroke-width="1" stroke-linecap="round" d="M 32.8 23.4 C 32.8 23.4 33.548 23.406 33.9 23.3 C 34.228 23.201 34.515 22.99 34.8 22.8 C 35.066 22.623 35.55 22.2 35.55 22.2 "/>
  <path id="ID0.5868821502663195" fill="#A55E03" stroke="none" d="M 23 24.05 L 32.6 24.05 L 32.6 24.85 L 23 24.85 L 23 24.05 Z " stroke-width="1"/>
  <path id="ID0.2859082077629864" fill="#CF7501" stroke="#CF7501" stroke-width="1.1824266834960124" d="M 46.7634 32.5959 C 47.5769 32.5959 48.3143 32.9277 48.8488 33.4639 C 49.3827 34.0006 49.7131 34.7413 49.7131 35.5583 C 49.7131 36.3753 49.3827 37.1159 48.8488 37.6527 C 48.3143 38.1889 47.5769 38.5207 46.7634 38.5207 C 45.9499 38.5207 45.2124 38.1889 44.678 37.6527 C 44.1441 37.1159 43.8137 36.3753 43.8137 35.5583 C 43.8137 34.7413 44.1441 34.0006 44.678 33.4639 C 45.2124 32.9277 45.9499 32.5959 46.7634 32.5959 Z "/>
  <path id="ID0.6709495121613145" fill="#CF7501" stroke="#CC7700" stroke-width="1.2205665111541748" d="M 37.6564 32.4952 L 46.5055 32.4952 L 46.5055 38.537 L 37.6564 38.537 L 37.6564 32.4952 Z "/>
  <path id="ID0.059100625570863485" fill="#B46603" stroke="none" d="M 37.05 37.9 L 46.9 37.9 L 46.9 39.2 L 37.05 39.2 L 37.05 37.9 Z " stroke-width="1"/>
  <path id="ID0.7237945105880499" fill="#B46603" stroke="none" d="M 37.05 36.8 L 47.05 36.8 L 47.05 38.3 L 37.05 38.3 L 37.05 36.8 Z " stroke-width="1"/>
  <path id="ID0.3554691867902875" fill="none" stroke="#B46603" stroke-width="1" stroke-linecap="round" d="M 46.8 38.5 C 46.954 38.529 47.576 38.401 47.9 38.25 C 48.198 38.092 48.45 37.85 48.7 37.6 C 48.9 37.3 48.9 36.9 49.1 36.6 C 49.15 36.4 49.45 36.05 49.45 36.05 C 49.85 36.2 49.537 36.911 49.35 37.25 C 49.187 37.545 49.055 37.879 48.8 38.1 C 48.535 38.329 48.186 38.451 47.85 38.55 C 47.61 38.621 47.096 38.621 47.1 38.6 Z "/>
  <path id="ID0.19690823648124933" fill="none" stroke="#B46603" stroke-width="1" stroke-linecap="round" d="M 46.15 37.7 C 46.15 37.7 47.156 37.639 47.65 37.55 C 47.992 37.488 48.32 37.36 48.65 37.25 C 48.82 37.193 49.15 37.05 49.15 37.05 "/>
  <path id="ID0.9434709856286645" fill="none" stroke="#B46603" stroke-width="1" stroke-linecap="round" d="M 46.9 37.1 C 46.9 37.1 47.648 37.106 48 37 C 48.328 36.901 48.615 36.69 48.9 36.5 C 49.166 36.323 49.65 35.9 49.65 35.9 "/>
  <path id="ID0.5868821502663195" fill="#A55E03" stroke="none" d="M 37.1 37.75 L 46.7 37.75 L 46.7 38.55 L 37.1 38.55 L 37.1 37.75 Z " stroke-width="1"/>
  <path id="ID0.7682638498954475" fill="none" stroke="#CCCCCC" stroke-width="2" stroke-linecap="round" d="M 19.1 19.2 L 11.7 19.2 "/>
  <path id="ID0.7947484315373003" fill="none" stroke="#CCCCCC" stroke-width="2" stroke-linecap="round" d="M 16.95 21.95 L 8.7 21.95 "/>
  <path id="ID0.163180242292583" fill="none" stroke="#CCCCCC" stroke-width="2" stroke-linecap="round" d="M 34.1 32.55 L 29.2 32.55 "/>
  <path id="ID0.1485797045752406" fill="none" stroke="#CCCCCC" stroke-width="2" stroke-linecap="round" d="M 31.35 35.05 L 24.65 35.05 "/>
  <path id="ID0.3186626797541976" fill="none" stroke="#CCCCCC" stroke-width="2" stroke-linecap="round" d="M 33.35 37.75 L 27.7 37.75 "/>
  <path id="ID0.8387209149077535" fill="none" stroke="#CCCCCC" stroke-width="2" stroke-linecap="round" d="M 19.6 24.25 L 12.2 24.25 "/>
</svg>