<svg xmlns="http://www.w3.org/2000/svg" xmlns:xlink="http://www.w3.org/1999/xlink" version="1.1" width="54.29999923706055" height="54.29999923706055" viewBox="0.9000000953674316 0.9500000476837158 54.29999923706055 54.29999923706055">
  <!-- Exported by Scratch - http://scratch.mit.edu/ -->
  <path id="ID0.9796598572283983" fill="#FFFADE" stroke="none" d="M 4.25 3.7 L 53 3.7 L 53 53.1 L 4.25 53.1 L 4.25 3.7 Z " stroke-width="1"/>
  <g id="ID0.7869698484428227">
    <path id="ID0.21350189531221986" fill="none" stroke="#FF0000" stroke-width="0.9917180551047592" d="M 37.8761 24.6172 C 39.5689 24.6086 41.1066 25.2885 42.2229 26.3936 C 43.3393 27.4987 44.0348 29.0294 44.0434 30.7222 C 44.052 32.415 43.372 33.9527 42.2669 35.069 C 41.1618 36.1854 39.6312 36.8809 37.9383 36.8895 C 36.2455 36.8981 34.7078 36.2181 33.5915 35.1131 C 32.4751 34.008 31.7796 32.4773 31.771 30.7845 C 31.7624 29.0916 32.4424 27.554 33.5475 26.4376 C 34.6526 25.3213 36.1832 24.6257 37.8761 24.6172 Z "/>
    <path id="ID0.400139972101897" fill="none" stroke="#FF0000" stroke-width="0.9917180551047592" stroke-linecap="round" d="M 38.0288 23.0952 L 38.1061 38.3427 "/>
    <path id="ID0.9353622444905341" fill="none" stroke="#FF0000" stroke-width="0.9917180551047592" stroke-linecap="round" d="M 30.2822 30.6965 L 45.4057 30.6198 "/>
  </g>
  <g id="ID0.8924102364107966">
    <path id="ID0.2859082077629864" fill="#CF7501" stroke="#CF7501" stroke-width="1.8020486184409252" d="M 28.5078 26.6636 C 29.7476 26.6636 30.8715 27.1692 31.6861 27.9864 C 32.4997 28.8045 33.0032 29.9332 33.0032 31.1783 C 33.0032 32.4235 32.4997 33.5522 31.6861 34.3703 C 30.8715 35.1875 29.7476 35.6931 28.5078 35.6931 C 27.268 35.6931 26.1441 35.1875 25.3295 34.3703 C 24.5159 33.5522 24.0124 32.4235 24.0124 31.1783 C 24.0124 29.9332 24.5159 28.8045 25.3295 27.9864 C 26.1441 27.1692 27.268 26.6636 28.5078 26.6636 Z "/>
    <path id="ID0.6709495121613145" fill="#CF7501" stroke="#CC7700" stroke-width="1.8601747751235962" d="M 14.5913 26.4632 L 28.0775 26.4632 L 28.0775 35.671 L 14.5913 35.671 L 14.5913 26.4632 Z "/>
    <path id="ID0.059100625570863485" fill="#B46603" stroke="none" d="M 13.7592 34.6231 L 28.7709 34.6231 L 28.7709 36.6044 L 13.7592 36.6044 L 13.7592 34.6231 Z " stroke-width="1.5240256786346436"/>
    <path id="ID0.7237945105880499" fill="#B46603" stroke="none" d="M 13.7592 32.9467 L 28.9995 32.9467 L 28.9995 35.2327 L 13.7592 35.2327 L 13.7592 32.9467 Z " stroke-width="1.5240256786346436"/>
    <path id="ID0.3554691867902875" fill="none" stroke="#B46603" stroke-width="1.5240256786346436" stroke-linecap="round" d="M 28.6185 35.5375 C 28.8532 35.5817 29.8011 35.3867 30.2949 35.1565 C 30.7491 34.9157 31.1331 34.5469 31.5141 34.1659 C 31.8189 33.7087 31.8189 33.0991 32.1237 32.6419 C 32.1999 32.3371 32.6571 31.8037 32.6571 31.8037 C 33.2667 32.0323 32.7897 33.1159 32.5047 33.6325 C 32.2563 34.0821 32.0551 34.5911 31.6665 34.9279 C 31.2627 35.2769 30.7308 35.4629 30.2187 35.6137 C 29.8529 35.7219 29.0696 35.7219 29.0757 35.6899 Z "/>
    <path id="ID0.19690823648124933" fill="none" stroke="#B46603" stroke-width="1.5240256786346436" stroke-linecap="round" d="M 27.6279 34.3183 C 27.6279 34.3183 29.161 34.2254 29.9139 34.0897 C 30.4351 33.9952 30.935 33.8002 31.4379 33.6325 C 31.697 33.5456 32.1999 33.3277 32.1999 33.3277 "/>
    <path id="ID0.9434709856286645" fill="none" stroke="#B46603" stroke-width="1.5240256786346436" stroke-linecap="round" d="M 28.7709 33.4039 C 28.7709 33.4039 29.9108 33.4131 30.4473 33.2515 C 30.9472 33.1006 31.3846 32.7791 31.8189 32.4895 C 32.2243 32.2197 32.9619 31.5751 32.9619 31.5751 "/>
    <path id="ID0.5868821502663195" fill="#A55E03" stroke="none" d="M 13.8354 34.3945 L 28.4661 34.3945 L 28.4661 35.6137 L 13.8354 35.6137 L 13.8354 34.3945 Z " stroke-width="1.5240256786346436"/>
  </g>
  <path id="ID0.3867268990725279" fill="none" stroke="#000000" stroke-width="4" d="M 2.9 2.95 L 53.2 2.95 L 53.2 53.25 L 2.9 53.25 L 2.9 2.95 Z "/>
</svg>