<svg version="1.1" xmlns="http://www.w3.org/2000/svg" xmlns:xlink="http://www.w3.org/1999/xlink" width="635.0871" height="472.4908" viewBox="0,0,635.0871,472.4908"><g transform="translate(114.58707,101.4908)"><g data-paper-data="{&quot;isPaintingLayer&quot;:true}" fill="none" fill-rule="nonzero" stroke-width="11" stroke-linecap="butt" stroke-linejoin="miter" stroke-miterlimit="10" stroke-dasharray="" stroke-dashoffset="0" style="mix-blend-mode: normal"><path d="M-21.99997,365.50001v-9h537v9c0,0 -167.606,0 -274.2829,0c-102.89426,0 -262.7171,0 -262.7171,0z" stroke="#ffffff"/><path d="M-109.08707,195.83032v-9h214.17718v9c0,0 -66.84801,0 -109.39504,0c-41.03837,0 -104.78214,0 -104.78214,0z" stroke="#006dff"/><path d="M38.55557,52.18168v-9h214.17718v9c0,0 -66.84801,0 -109.39504,0c-41.03837,0 -104.78214,0 -104.78214,0z" stroke="#006dff"/><path d="M276.2883,-86.9908v-9h214.17718v9c0,0 -66.84801,0 -109.39504,0c-41.03837,0 -104.78214,0 -104.78214,0z" stroke="#006dff"/></g></g></svg>