<svg version="1.1" xmlns="http://www.w3.org/2000/svg" xmlns:xlink="http://www.w3.org/1999/xlink" width="500.51361" height="132.57521" viewBox="0,0,500.51361,132.57521"><g transform="translate(3.27692,-116.74737)"><g data-paper-data="{&quot;isPaintingLayer&quot;:true}" fill-rule="nonzero" stroke-width="11" stroke-linecap="butt" stroke-linejoin="miter" stroke-miterlimit="10" stroke-dasharray="" stroke-dashoffset="0" style="mix-blend-mode: normal"><path d="M104.95815,209.37806l0.39387,-43.54176l292.78082,2.64842l-0.39387,43.54176z" data-paper-data="{&quot;origRot&quot;:0}" fill="#ff0000" stroke="#ff0000"/><path d="M14.07589,154.97877c18.79802,-23.72294 53.26806,-27.71536 76.99099,-8.91735c23.72294,18.79802 27.71536,53.26806 8.91735,76.99099c-18.79802,23.72294 -53.26806,27.71536 -76.99099,8.91735c-23.72294,-18.79802 -27.71536,-53.26806 -8.91735,-76.99099z" data-paper-data="{&quot;origRot&quot;:0}" fill="#ffffff" stroke="#ffffff"/><path d="M202.54523,143.01753c18.79802,-23.72294 53.26806,-27.71537 76.99099,-8.91735c23.72294,18.79802 27.71536,53.26806 8.91735,76.99099c-18.79802,23.72294 -53.26807,27.71537 -76.991,8.91736c-23.72294,-18.79802 -27.71536,-53.26806 -8.91734,-76.991z" data-paper-data="{&quot;origRot&quot;:0}" fill="#ffffff" stroke="#ffffff"/><path d="M393.97553,149.79707c18.79802,-23.72294 53.26806,-27.71536 76.99099,-8.91735c23.72294,18.79802 27.71536,53.26806 8.91735,76.99099c-18.79802,23.72294 -53.26806,27.71536 -76.99099,8.91735c-23.72294,-18.79802 -27.71537,-53.26806 -8.91735,-76.99099z" data-paper-data="{&quot;origRot&quot;:0}" fill="#ffffff" stroke="#ffffff"/></g></g></svg>