<svg version="1.1" xmlns="http://www.w3.org/2000/svg" xmlns:xlink="http://www.w3.org/1999/xlink" width="415.14414" height="360.60961" viewBox="0,0,415.14414,360.60961"><g transform="translate(-39.40782,-6.11993)"><g data-paper-data="{&quot;isPaintingLayer&quot;:true}" fill-rule="nonzero" stroke-width="11" stroke-linecap="butt" stroke-linejoin="miter" stroke-miterlimit="10" stroke-dasharray="" stroke-dashoffset="0" style="mix-blend-mode: normal"><path d="M149.92328,292.61816l-26.73315,-34.37119l231.11664,-179.75739l26.73315,34.37119z" data-paper-data="{&quot;origRot&quot;:0}" fill="#ff0000" stroke="#ff0000"/><path d="M44.90782,306.42474c0,-30.26786 24.53695,-54.8048 54.8048,-54.8048c30.26786,0 54.8048,24.53695 54.8048,54.8048c0,30.26786 -24.53695,54.8048 -54.8048,54.8048c-30.26786,0 -54.8048,-24.53695 -54.8048,-54.8048z" fill="#ffffff" stroke="#ffffff"/><path d="M185.1952,180c0,-30.26786 24.53694,-54.8048 54.8048,-54.8048c30.26786,0 54.8048,24.53695 54.8048,54.8048c0,30.26786 -24.53695,54.80481 -54.8048,54.80481c-30.26786,0 -54.8048,-24.53695 -54.8048,-54.80481z" fill="#ffffff" stroke="#ffffff"/><path d="M339.44235,66.42474c0,-30.26786 24.53695,-54.8048 54.8048,-54.8048c30.26786,0 54.8048,24.53695 54.8048,54.8048c0,30.26786 -24.53695,54.8048 -54.8048,54.8048c-30.26786,0 -54.8048,-24.53694 -54.8048,-54.8048z" fill="#ffffff" stroke="#ffffff"/></g></g></svg>