<svg version="1.1" xmlns="http://www.w3.org/2000/svg" xmlns:xlink="http://www.w3.org/1999/xlink" width="72.07344" height="66.06608" viewBox="0,0,72.07344,66.06608"><g transform="translate(-203.96328,-146.96696)"><g data-paper-data="{&quot;isPaintingLayer&quot;:true}" fill-rule="nonzero" stroke="none" stroke-linecap="butt" stroke-linejoin="miter" stroke-miterlimit="10" stroke-dasharray="" stroke-dashoffset="0" style="mix-blend-mode: normal"><g><path d="M276.03534,180.00001c0,9.35313 -1.23762,20.80135 -8.05258,26.81122c-6.47788,5.71261 -18.28472,6.22181 -27.98345,6.22181c-8.69,0 -19.66458,-1.31811 -25.88835,-6.01375c-8.03014,-6.05848 -10.14768,-16.74148 -10.14768,-27.01929c0,-8.10499 1.68285,-20.03272 6.96728,-25.78026c6.61037,-7.18968 18.00841,-7.25278 29.06876,-7.25278c9.69874,0 23.00708,0.50921 29.48496,6.22181c6.81496,6.00987 6.55108,17.45809 6.55108,26.81122z" fill="#1132c8" stroke-width="NaN"/><path d="M230.9903,173.24326c0,8.70719 -1.34449,15.76577 -3.003,15.76577c-1.65851,0 -3.003,-7.05857 -3.003,-15.76577c0,-8.70719 1.34449,-15.76577 3.003,-15.76577c1.65851,0 3.003,7.05857 3.003,15.76577z" fill="#000000" stroke-width="0"/><path d="M254.00831,173.73875c0,8.70719 -1.34448,15.76576 -3.003,15.76576c-1.65851,0 -3.003,-7.05857 -3.003,-15.76576c0,-8.70719 1.34449,-15.76576 3.003,-15.76576c1.65851,0 3.003,7.05857 3.003,15.76576z" fill="#000000" stroke-width="0"/></g></g></g></svg>