<svg version="1.1" xmlns="http://www.w3.org/2000/svg" xmlns:xlink="http://www.w3.org/1999/xlink" width="690.64263" height="436.45476" viewBox="0,0,690.64263,436.45476"><g transform="translate(29.00147,194.5839)"><g data-paper-data="{&quot;isPaintingLayer&quot;:true}" fill-rule="nonzero" stroke-width="11" stroke-linecap="butt" stroke-linejoin="miter" stroke-miterlimit="10" stroke-dasharray="" stroke-dashoffset="0" style="mix-blend-mode: normal"><path d="M239.21563,-189.0839c106.6769,0 274.2829,0 274.2829,0v9h-537v-9c0,0 159.82284,0 262.7171,0z" data-paper-data="{&quot;index&quot;:null}" fill="none" stroke="#ffffff"/><path d="M546.74612,-40.40691c42.54703,0 109.39504,0 109.39504,0v9h-214.17718v-9c0,0 63.74377,0 104.78214,0z" data-paper-data="{&quot;index&quot;:null}" fill="none" stroke="#ff00c9"/><path d="M361.05543,94.32722c42.54703,0 109.39504,0 109.39504,0v10.3125h-214.17718v-10.3125c0,0 63.74377,0 104.78214,0z" data-paper-data="{&quot;index&quot;:null}" fill="#ffffff" stroke="#ff00c9"/><path d="M194.88426,227.37086c42.54703,0 109.39504,0 109.39504,0v9h-214.17718v-9c0,0 63.74377,0 104.78214,0z" data-paper-data="{&quot;index&quot;:null}" fill="none" stroke="#ff00c9"/></g></g></svg>