<svg version="1.1" xmlns="http://www.w3.org/2000/svg" xmlns:xlink="http://www.w3.org/1999/xlink" width="695.1952" height="474.47447" viewBox="0,0,695.1952,474.47447"><g transform="translate(98.47128,60.45795)"><g data-paper-data="{&quot;isPaintingLayer&quot;:true}" fill-rule="nonzero" stroke-linejoin="miter" stroke-miterlimit="10" stroke-dasharray="" stroke-dashoffset="0" style="mix-blend-mode: normal"><path d="M-98.47128,414.01652v-474.47447h695.1952v474.47447z" fill="#000000" stroke="none" stroke-width="0" stroke-linecap="butt"/><path d="M61.78679,231.01118l128.9787,-79.85459" fill="none" stroke="#ffffff" stroke-width="5" stroke-linecap="round"/><path d="M72.7928,245.02018l128.97869,-79.85459" fill="none" stroke="#ffffff" stroke-width="5" stroke-linecap="round"/><path d="M91.30631,259.02919l128.97869,-79.85459" fill="none" stroke="#ffffff" stroke-width="5" stroke-linecap="round"/><g stroke="none" stroke-linecap="butt"><path d="M287.4146,149.75225c0,9.35313 -1.23762,20.80135 -8.05258,26.81122c-6.47788,5.71261 -18.28472,6.22181 -27.98345,6.22181c-8.69,0 -19.66458,-1.31811 -25.88835,-6.01375c-8.03014,-6.05848 -10.14768,-16.74148 -10.14768,-27.01929c0,-8.10499 1.68285,-20.03272 6.96728,-25.78026c6.61037,-7.18968 18.00841,-7.25278 29.06876,-7.25278c9.69874,0 23.00708,0.50921 29.48496,6.22181c6.81496,6.00987 6.55108,17.45809 6.55108,26.81122z" fill="#1132c8" stroke-width="NaN"/><path d="M242.36956,142.9955c0,8.70719 -1.34449,15.76577 -3.003,15.76577c-1.65851,0 -3.003,-7.05857 -3.003,-15.76577c0,-8.70719 1.34449,-15.76577 3.003,-15.76577c1.65851,0 3.003,7.05857 3.003,15.76577z" fill="#000000" stroke-width="0"/><path d="M265.38757,143.49099c0,8.70719 -1.34448,15.76576 -3.003,15.76576c-1.65851,0 -3.003,-7.05857 -3.003,-15.76576c0,-8.70719 1.34449,-15.76576 3.003,-15.76576c1.65851,0 3.003,7.05857 3.003,15.76576z" fill="#000000" stroke-width="0"/></g><path d="M53.18037,355.45796l367.86787,-1.5015" fill="none" stroke="#ffffff" stroke-width="12.5" stroke-linecap="round"/><text transform="translate(38.16535,60.03754) scale(1.11817,1.11817)" font-size="40" xml:space="preserve" fill="#ffffff" fill-rule="nonzero" stroke="none" stroke-width="1" stroke-linecap="butt" stroke-linejoin="miter" stroke-miterlimit="10" stroke-dasharray="" stroke-dashoffset="0" font-family="Marker" font-weight="normal" text-anchor="start" style="mix-blend-mode: normal"><tspan x="0" dy="0">Scrolling platformer</tspan></text><text transform="translate(252.92239,231.60106) scale(0.5,0.5)" font-size="40" xml:space="preserve" fill="#ffffff" fill-rule="nonzero" stroke="none" stroke-width="1" stroke-linecap="butt" stroke-linejoin="miter" stroke-miterlimit="10" stroke-dasharray="" stroke-dashoffset="0" font-family="Sans Serif" font-weight="normal" text-anchor="start" style="mix-blend-mode: normal"><tspan x="0" dy="0">By Max_T_</tspan></text></g></g></svg>