<svg version="1.1" xmlns="http://www.w3.org/2000/svg" xmlns:xlink="http://www.w3.org/1999/xlink" width="548" height="131.97778" viewBox="0,0,548,131.97778"><g transform="translate(27.49998,-239.02222)"><g data-paper-data="{&quot;isPaintingLayer&quot;:true}" fill-rule="nonzero" stroke-width="11" stroke-linecap="butt" stroke-linejoin="miter" stroke-miterlimit="10" stroke-dasharray="" stroke-dashoffset="0" style="mix-blend-mode: normal"><path d="M149.26563,341.05087v-66h204v66z" fill="#ff0000" stroke="#ff0000"/><path d="M-21.99998,365.5v-9h537v9c0,0 -167.606,0 -274.2829,0c-102.89426,0 -262.7171,0 -262.7171,0z" fill="none" stroke="#0dc100"/><path d="M130.26564,355.05087v-24c0,0 15.85316,0 26,0c30.44051,0 188,0 188,0v24z" fill="#0dc100" stroke="#0dc100"/><path d="M127.76564,253.55087l21,17c0,0 2,65.70434 2,70.63551c0,14.79352 1,16.36449 1,16.36449h-24z" data-paper-data="{&quot;origRot&quot;:0}" fill="#0dc100" stroke="#0dc100"/><path d="M367.76565,354.55087h-24c0,0 1,-1.57097 1,-16.36448c0,-4.93117 2,-70.63551 2,-70.63551l21,-17z" data-paper-data="{&quot;origRot&quot;:0,&quot;index&quot;:null}" fill="#0dc100" stroke="#0dc100"/></g></g></svg>