<svg version="1.1" xmlns="http://www.w3.org/2000/svg" xmlns:xlink="http://www.w3.org/1999/xlink" width="49.79907" height="27.5"><g transform="translate(-225.25,-167.05)"><g data-paper-data="{&quot;isPaintingLayer&quot;:true}" fill="none" fill-rule="nonzero" stroke="none" stroke-width="none" stroke-linecap="none" stroke-linejoin="miter" stroke-miterlimit="10" stroke-dasharray="" stroke-dashoffset="0" font-family="none" font-weight="none" font-size="none" text-anchor="none" style="mix-blend-mode: normal"><path d="M267.9,185.15c0,0 -0.361,1.467 -0.85,2c-0.483,0.527 -1.261,0.68 -1.9,1c-0.626,0.313 -1.222,0.726 -1.9,0.9c-0.646,0.166 -1.336,0.166 -2,0.1c-0.683,-0.068 -1.338,-0.319 -2,-0.5c-0.166,-0.045 -0.2,-0.1 -0.2,-0.1" id="ID0.4444419676437974" fill="none" stroke="#3a3a3a" stroke-width="2" stroke-linecap="round"/><path d="M259.95,176.55c0,0 1.341,0.043 2,0.15c0.678,0.11 1.363,0.245 2,0.5c0.623,0.249 1.201,0.615 1.75,1c0.571,0.4 1.6,1.35 1.6,1.35" id="ID0.8835110608488321" fill="none" stroke="#3a3a3a" stroke-width="2" stroke-linecap="round"/><path d="M239,168.55c3.38,0 6.442,1.373 8.66,3.59c2.217,2.218 3.59,5.28 3.59,8.66c0,3.38 -1.373,6.442 -3.59,8.66c-2.218,2.217 -5.28,3.59 -8.66,3.59c-3.38,0 -6.442,-1.373 -8.66,-3.59c-2.217,-2.218 -3.59,-5.28 -3.59,-8.66c0,-3.38 1.373,-6.442 3.59,-8.66c2.218,-2.217 5.28,-3.59 8.66,-3.59z" id="ID0.08161163376644254" fill="#ffffff" stroke="#000000" stroke-width="3" stroke-linecap="butt"/><path d="M261.65,179.9l-17.55,-10.5" id="ID0.13923896756023169" fill="none" stroke="#000000" stroke-width="3" stroke-linecap="round"/><path d="M244,192.15l17.95,-6.45" id="ID0.2729104966856539" fill="none" stroke="#000000" stroke-width="3" stroke-linecap="round"/><path d="M256.94907,179.34907l18.1,-0.80555l-0.04907,9.46574l-18.05093,-1.26018z" data-paper-data="{&quot;origPos&quot;:null}" id="ID0.16589416423812509" fill="#3a3a3a" stroke="none" stroke-width="1" stroke-linecap="butt"/></g></g></svg>