<svg xmlns="http://www.w3.org/2000/svg" xmlns:xlink="http://www.w3.org/1999/xlink" version="1.1" width="54.29999923706055" height="58.400001525878906" viewBox="0.9000000953674316 -1.8999999985098839 54.29999923706055 58.400001525878906">
  <!-- Exported by Scratch - http://scratch.mit.edu/ -->
  <path id="ID0.9796598572283983" fill="#FFFADE" stroke="none" d="M 4.25 5.1 L 53 5.1 L 53 54.5 L 4.25 54.5 L 4.25 5.1 Z " stroke-width="1"/>
  <g id="ID0.8924102364107966">
    <path id="ID0.2859082077629864" fill="#CF7501" stroke="#CF7501" stroke-width="1.979590344454322" d="M 28.5734 26.2984 C 29.9353 26.2984 31.1699 26.8539 32.0647 27.7515 C 32.9586 28.6502 33.5117 29.8901 33.5117 31.258 C 33.5117 32.6258 32.9586 33.8657 32.0647 34.7644 C 31.1699 35.6621 29.9353 36.2176 28.5734 36.2176 C 27.2114 36.2176 25.9768 35.6621 25.082 34.7644 C 24.1881 33.8657 23.635 32.6258 23.635 31.258 C 23.635 29.8901 24.1881 28.6502 25.082 27.7515 C 25.9768 26.8539 27.2114 26.2984 28.5734 26.2984 Z "/>
    <path id="ID0.6709495121613145" fill="#CF7501" stroke="#CC7700" stroke-width="2.043443202972412" d="M 13.2874 26.0709 L 28.1024 26.0709 L 28.1024 36.1859 L 13.2874 36.1859 L 13.2874 26.0709 Z "/>
    <path id="ID0.059100625570863485" fill="#B46603" stroke="none" d="M 12.3771 35.0158 L 28.8678 35.0158 L 28.8678 37.1922 L 12.3771 37.1922 L 12.3771 35.0158 Z " stroke-width="1.6741759777069092"/>
    <path id="ID0.7237945105880499" fill="#B46603" stroke="none" d="M 12.3771 33.1742 L 29.1189 33.1742 L 29.1189 35.6855 L 12.3771 35.6855 L 12.3771 33.1742 Z " stroke-width="1.6741759777069092"/>
    <path id="ID0.3554691867902875" fill="none" stroke="#B46603" stroke-width="1.6741759777069092" stroke-linecap="round" d="M 28.7003 36.0203 C 28.9582 36.0689 29.9995 35.8546 30.5419 35.6018 C 31.0408 35.3372 31.4627 34.9321 31.8813 34.5135 C 32.2161 34.0113 32.2161 33.3416 32.5509 32.8394 C 32.6347 32.5045 33.1369 31.9186 33.1369 31.9186 C 33.8066 32.1697 33.2826 33.36 32.9695 33.9276 C 32.6966 34.4215 32.4756 34.9806 32.0487 35.3506 C 31.605 35.734 31.0207 35.9383 30.4582 36.104 C 30.0564 36.2229 29.1959 36.2229 29.2026 36.1877 Z "/>
    <path id="ID0.19690823648124933" fill="none" stroke="#B46603" stroke-width="1.6741759777069092" stroke-linecap="round" d="M 27.6121 34.681 C 27.6121 34.681 29.2963 34.5788 30.1234 34.4298 C 30.696 34.326 31.2451 34.1117 31.7976 33.9276 C 32.0822 33.8322 32.6347 33.5927 32.6347 33.5927 "/>
    <path id="ID0.9434709856286645" fill="none" stroke="#B46603" stroke-width="1.6741759777069092" stroke-linecap="round" d="M 28.8678 33.6765 C 28.8678 33.6765 30.12 33.6865 30.7093 33.509 C 31.2585 33.3433 31.739 32.99 32.2161 32.672 C 32.6614 32.3756 33.4717 31.6674 33.4717 31.6674 "/>
    <path id="ID0.5868821502663195" fill="#A55E03" stroke="none" d="M 12.4608 34.7647 L 28.5329 34.7647 L 28.5329 36.104 L 12.4608 36.104 L 12.4608 34.7647 Z " stroke-width="1.6741759777069092"/>
  </g>
  <path id="ID0.8984545930288732" fill="#666666" stroke="none" stroke-linecap="round" d="M 30.3727 17.0865 C 30.7423 16.8458 35.8974 20.4377 37.4811 22.6717 C 39.5468 25.3029 41.0553 28.3352 41.0354 31.3035 C 41.0112 34.617 39.7288 37.9945 37.6233 40.9507 C 36.0736 43.3228 30.7124 47.1086 30.3727 46.8405 C 30.0329 46.5724 34.0364 41.6808 35.1353 38.9197 C 36.149 36.3728 36.7831 33.767 36.7703 31.1511 C 36.7589 28.8297 35.94 26.6352 34.9221 24.5504 C 33.7961 21.9213 30.003 17.3272 30.3727 17.0865 Z " stroke-width="1.2354029448271633"/>
  <path id="ID0.3867268990725279" fill="none" stroke="#000000" stroke-width="4" d="M 2.9 3.95 L 53.2 3.95 L 53.2 54.25 L 2.9 54.25 L 2.9 3.95 Z "/>
  <path id="ID0.8984545930288732" fill="#7F7F7F" stroke="none" stroke-linecap="round" d="M 38.0081 19.4923 C 38.3068 19.2978 42.4729 22.2005 43.7528 24.0059 C 45.4221 26.1323 46.6412 28.5828 46.6251 30.9816 C 46.6055 33.6594 45.5692 36.3889 43.8677 38.7778 C 42.6153 40.6949 38.2827 43.7543 38.0081 43.5377 C 37.7335 43.321 40.9689 39.3679 41.857 37.1365 C 42.6762 35.0783 43.1886 32.9725 43.1783 30.8585 C 43.1691 28.9824 42.5073 27.209 41.6847 25.5242 C 40.7747 23.3995 37.7094 19.6868 38.0081 19.4923 Z " stroke-width="0.9983779138270641"/>
  <path id="ID0.438076660502702" fill="#FFFFFF" stroke="none" d="M 13.9 0.1 L 13.9 0.1 L 13.9 0.4 L 13.9 0.4 L 13.9 0.1 Z " stroke-width="1"/>
</svg>