<svg xmlns="http://www.w3.org/2000/svg" xmlns:xlink="http://www.w3.org/1999/xlink" version="1.1" width="54.29999923706055" height="54.54999923706055" viewBox="0.9000000953674316 0.9500000476837158 54.29999923706055 54.54999923706055">
  <!-- Exported by Scratch - http://scratch.mit.edu/ -->
  <path id="ID0.9796598572283983" fill="#FFFADE" stroke="none" d="M 4.25 4.1 L 53 4.1 L 53 53.5 L 4.25 53.5 L 4.25 4.1 Z " stroke-width="1"/>
  <g id="ID0.36033830093219876">
    <path id="ID0.436717442702502" fill="#B2B2B2" stroke="#666666" stroke-width="1.999999990226712" stroke-linecap="round" d="M 40.5261 29.0388 L 36.5448 36.8666 L 32.0606 41.7284 L 29.7124 33.2779 L 28.2772 36.1274 L 19.0312 30.3738 L 28.2784 27.6039 L 29.2458 26.7875 L 29.6907 17.0627 L 36.4747 22.315 L 44.3778 20.7053 L 40.5261 29.0388 Z "/>
  </g>
  <g id="ID0.36033830093219876">
    <path id="ID0.436717442702502" fill="#B2B2B2" stroke="#666666" stroke-width="2.000000018819975" stroke-linecap="round" d="M 39.0306 25.7718 L 45.2712 29.8849 L 38.691 35.1124 L 38.6763 41.2656 L 31.8082 34.8681 L 23.924 38.5234 L 25.9039 33.0505 L 20.1675 29.7849 L 28.1453 29.4898 L 23.6463 20.8568 L 32.1505 21.9919 L 38.1764 16.6311 L 39.0306 25.7718 Z "/>
  </g>
  <path id="ID0.3867268990725279" fill="none" stroke="#000000" stroke-width="4" d="M 2.9 2.95 L 53.2 2.95 L 53.2 53.25 L 2.9 53.25 L 2.9 2.95 Z "/>
  <g id="ID0.8924102364107966">
    <path id="ID0.2859082077629864" fill="#CF7501" stroke="#CF7501" stroke-width="1.4473673196888548" d="M 29.2243 25.6288 C 30.2201 25.6288 31.1228 26.035 31.777 26.6913 C 32.4305 27.3484 32.8349 28.2549 32.8349 29.255 C 32.8349 30.2551 32.4305 31.1617 31.777 31.8188 C 31.1228 32.4751 30.2201 32.8812 29.2243 32.8812 C 28.2285 32.8812 27.3258 32.4751 26.6716 31.8188 C 26.0181 31.1617 25.6137 30.2551 25.6137 29.255 C 25.6137 28.2549 26.0181 27.3484 26.6716 26.6913 C 27.3258 26.035 28.2285 25.6288 29.2243 25.6288 Z "/>
    <path id="ID0.6709495121613145" fill="#CF7501" stroke="#CC7700" stroke-width="1.4940530061721802" d="M 17.9946 25.5838 L 28.8265 25.5838 L 28.8265 32.9794 L 17.9946 32.9794 L 17.9946 25.5838 Z "/>
    <path id="ID0.059100625570863485" fill="#B46603" stroke="none" d="M 17.2979 32.1504 L 29.3549 32.1504 L 29.3549 33.7417 L 17.2979 33.7417 L 17.2979 32.1504 Z " stroke-width="1.2240651845932007"/>
    <path id="ID0.7237945105880499" fill="#B46603" stroke="none" d="M 17.2979 30.8039 L 29.5385 30.8039 L 29.5385 32.64 L 17.2979 32.64 L 17.2979 30.8039 Z " stroke-width="1.2240651845932007"/>
    <path id="ID0.3554691867902875" fill="none" stroke="#B46603" stroke-width="1.2240651845932007" stroke-linecap="round" d="M 29.2325 32.8848 C 29.421 32.9203 30.1824 32.7637 30.579 32.5788 C 30.9437 32.3854 31.2522 32.0892 31.5582 31.7832 C 31.803 31.416 31.803 30.9263 32.0479 30.5591 C 32.1091 30.3143 32.4763 29.8859 32.4763 29.8859 C 32.9659 30.0695 32.5828 30.9398 32.3539 31.3548 C 32.1543 31.7159 31.9928 32.1247 31.6806 32.3952 C 31.3563 32.6755 30.9291 32.8249 30.5178 32.946 C 30.224 33.033 29.5948 33.033 29.5997 33.0072 Z "/>
    <path id="ID0.19690823648124933" fill="none" stroke="#B46603" stroke-width="1.2240651845932007" stroke-linecap="round" d="M 28.4369 31.9056 C 28.4369 31.9056 29.6683 31.8309 30.273 31.722 C 30.6916 31.6461 31.0931 31.4894 31.497 31.3548 C 31.7051 31.285 32.1091 31.1099 32.1091 31.1099 "/>
    <path id="ID0.9434709856286645" fill="none" stroke="#B46603" stroke-width="1.2240651845932007" stroke-linecap="round" d="M 29.3549 31.1711 C 29.3549 31.1711 30.2705 31.1785 30.7014 31.0487 C 31.1029 30.9276 31.4542 30.6693 31.803 30.4367 C 32.1286 30.22 32.7211 29.7023 32.7211 29.7023 "/>
    <path id="ID0.5868821502663195" fill="#A55E03" stroke="none" d="M 17.3591 31.9668 L 29.1101 31.9668 L 29.1101 32.946 L 17.3591 32.946 L 17.3591 31.9668 Z " stroke-width="1.2240651845932007"/>
  </g>
  <path id="ID0.5117974788881838" fill="none" stroke="#CCCCCC" stroke-width="2" stroke-linecap="round" d="M 13.95 26.85 L 9.65 26.85 "/>
  <path id="ID0.7563930791802704" fill="none" stroke="#CCCCCC" stroke-width="2" stroke-linecap="round" d="M 11.3 29.85 L 6.05 29.85 "/>
  <path id="ID0.967230430804193" fill="none" stroke="#CCCCCC" stroke-width="2" stroke-linecap="round" d="M 12.8 32.95 L 8.65 32.95 "/>
</svg>