<svg xmlns="http://www.w3.org/2000/svg" xmlns:xlink="http://www.w3.org/1999/xlink" version="1.1" width="188.16879482746282" height="175.75259609699407" viewBox="-3.0843974137314056 -2.8406974160679077 188.16879482746282 175.75259609699407">
  <!-- Exported by Scratch - http://scratch.mit.edu/ -->
  <path id="ID0.18357188999652863" fill="#E7CB9C" stroke="#FFEB97" stroke-width="6.668794827462811" stroke-linecap="round" d="M 13.7561 51.1824 L 147.9193 51.1824 L 147.9193 162.9221 L 145.5489 167.8261 L 139.3859 169.2272 L 21.3413 169.5775 L 15.6524 167.8261 L 13.7561 164.3233 L 13.7561 51.1824 Z "/>
  <path id="ID0.7739423387683928" fill="#D2A55B" stroke="none" d="M 17.25 54.5 L 144.5 54.5 L 144.5 78.5 L 17.25 78.5 L 17.25 54.5 Z " stroke-width="1"/>
  <path id="ID0.5260577858425677" fill="#FFE9CC" stroke="none" d="M 180.75 42 L 181.75 42 L 181.75 42 L 180.75 42 L 180.75 42 Z " stroke-width="1"/>
  <g id="ID0.7641245084814727">
    <g id="ID0.20381458941847086">
      <path id="ID0.8970314282923937" fill="#FF0000" stroke="none" stroke-linecap="round" d="M 72 28.7607 L 159.25 28.4304 L 158.5 38.0101 L 161.75 61.7944 L 159.5 65.7585 L 143.25 64.4371 L 125.25 67.4102 L 119.25 66.7495 L 95.75 63.1158 L 76.5 62.7854 L 71.25 61.4641 L 73 39.3315 L 72 28.7607 Z " stroke-width="1.1717427160283986"/>
      <path id="ID0.9914814489893615" fill="#FFFFFF" stroke="none" stroke-linecap="round" d="M 90.488 28.4 L 98.7968 28.0697 L 106.3375 28.7304 L 104.2428 35.3371 L 102.8464 49.5416 L 103.1955 54.4967 L 104.2428 64.0764 L 90.9768 62.7551 L 87.8348 57.8 L 86.7875 50.863 L 90.488 28.4 Z " stroke-width="1.3594069378498133"/>
      <path id="ID0.9914814489893615" fill="#FFFFFF" stroke="none" stroke-linecap="round" d="M 139.2913 28.4322 L 130.2145 28.5643 L 123.1625 28.6304 L 125.2572 35.2371 L 126.6536 49.4416 L 126.3045 54.3967 L 124.2098 67.7423 L 139.7102 65.4299 L 141.6652 57.7 L 142.7125 50.763 L 139.2913 28.4322 Z " stroke-width="1.3594069378498133"/>
    </g>
    <g id="ID0.20381458941847086">
      <path id="ID0.8970314282923937" fill="#FF0000" stroke="none" stroke-linecap="round" d="M 1 29.0607 L 88.25 28.7304 L 89.5 38.9708 L 89 56.4787 L 88 62.0944 L 72 63.4158 L 51 67.0495 L 42.5 66.4549 L 23.5 64.0764 L 2.5 65.7281 L 0.25 61.7641 L 2 39.6315 L 1 29.0607 Z " stroke-width="1.1717427160283986"/>
      <path id="ID0.9914814489893615" fill="#FFFFFF" stroke="none" stroke-linecap="round" d="M 19.488 28.75 L 27.7968 28.4197 L 35.3375 29.0804 L 33.2428 35.6871 L 31.8464 49.8916 L 32.1955 54.8467 L 34.2902 64.7568 L 19.2785 65.0871 L 16.8348 58.15 L 15.7875 51.213 L 19.488 28.75 Z " stroke-width="1.3594069378498133"/>
      <path id="ID0.9914814489893615" fill="#FFFFFF" stroke="none" stroke-linecap="round" d="M 68.2913 28.7322 L 60.5411 28.9304 L 52.1625 28.9304 L 54.2572 35.5371 L 55.6536 49.7416 L 55.3045 54.6967 L 52.0229 67.0513 L 66.4759 64.0782 L 70.6652 58 L 71.7125 51.063 L 68.2913 28.7322 Z " stroke-width="1.3594069378498133"/>
    </g>
  </g>
  <path id="ID0.8616072311997414" fill="#FF9400" stroke="none" stroke-linecap="round" d="M 40.7954 10.2532 L 43.7523 7.488 L 80.2202 0.4937 L 119.0291 6.2681 L 121.7395 10.4972 L 123.4644 34.0013 L 121.0003 36.7665 L 96.483 34.4893 L 66.5448 34.4893 L 43.0131 37.0105 L 39.5634 34.2453 L 40.7954 10.2532 Z " stroke-width="2.087739895442047"/>
  <path id="ID0.8616072311997414" fill="#FFE9CC" stroke="none" stroke-linecap="round" d="M 46.4973 12.2465 L 80.3068 6.0272 L 116.7879 10.7593 L 117.2486 32.0539 L 96.4285 29.823 L 66.304 29.823 L 45.7603 31.7835 L 46.4973 12.2465 Z " stroke-width="1.6159727947892546"/>
  <text id="ID0.8527550045400858" fill="#000000" text-anchor="start" font-family="Sans Serif" font-size="22" transform="matrix(0.912086 0 0 0.912086 53.2242 3.76374)" stroke-width="1" alignment-baseline="text-before-edge" xml:space="preserve"><tspan x="0" style="white-space: pre" dy="1.13em">SHOP</tspan></text>
  <path id="ID0.8763606478460133" fill="#D2A55B" stroke="none" d="M 17.5 134.9315 L 144.75 134.9315 L 144.75 166.1815 L 17.5 166.1815 L 17.5 134.9315 Z " stroke-width="0.9636749430396676"/>
  <path id="ID0.08867175364866853" fill="none" stroke="#FFEB97" stroke-width="2" stroke-linecap="round" d="M 142.25 167.25 C 142.25 167.25 144.023 166.581 144.75 166 C 145.309 165.553 145.663 164.882 146 164.25 C 146.335 163.622 146.432 162.886 146.75 162.25 C 147.101 161.548 148 160.25 148 160.25 "/>
  <path id="ID0.646376196295023" fill="none" stroke="#FFEB97" stroke-width="2" stroke-linecap="round" d="M 148.3 160.55 L 148 160.25 C 147.25 160.5 146.6 162 146.25 162.75 C 145.9 163.35 145.6 163.95 145.25 164.5 C 144.8 165.1 144.25 165.7 143.75 166.25 C 143.2 166.75 142.65 167.35 142 167.75 C 141.3 168.1 140.5 168.3 139.75 168.5 C 139.5 168.55 139 168.5 139 168.5 C 139.25 167.75 140.776 167.505 141.5 167.25 C 142.202 167.002 142.935 166.735 143.5 166.25 C 144.132 165.708 144.628 164.995 145 164.25 C 145.389 163.473 145.607 162.607 145.75 161.75 C 145.859 161.093 145.711 160.415 145.75 159.75 C 145.794 158.997 145.925 158.25 146 157.5 C 146.019 157.312 146 157.25 146 157.25 "/>
  <path id="ID0.6004664935171604" fill="none" stroke="#FFEB97" stroke-width="2" stroke-linecap="round" d="M 16.25 157.75 C 16.25 157.75 16.342 159.428 16.5 160.25 C 16.759 161.598 17.13 162.928 17.5 164.25 C 17.713 165.011 17.768 165.874 18.25 166.5 C 18.659 167.032 19.392 167.216 20 167.5 C 20.645 167.801 21.31 168.077 22 168.25 C 22.651 168.413 23.332 168.436 24 168.5 C 25.081 168.603 27.25 168.75 27.25 168.75 "/>
  <path id="ID0.3810891988687217" fill="none" stroke="#FFEB97" stroke-width="2" stroke-linecap="round" d="M 19 167.75 C 19 167.75 17.55 166.8 17 166.25 C 16.45 165.7 16.1 165.1 15.75 164.5 C 15.35 163.85 15.05 163.15 14.75 162.5 C 14.65 162.3 14.75 162.25 14.75 162.25 C 15.25 162.25 16.45 163.35 17 164 C 17.45 164.5 17.7 165.2 18.25 165.75 C 18.75 166.25 19.3 166.75 20 167 C 20.6 167.2 21.3 167 22 167 C 22.65 167 23.3 166.9 24 167 C 24.15 167 24.5 167.25 24.5 167.25 C 24.5 167 22.65 166.939 21.75 166.75 C 21.054 166.603 20.395 166.301 19.75 166 C 19.142 165.716 18.541 165.397 18 165 C 17.286 164.477 16.626 163.876 16 163.25 C 15.457 162.707 14.937 162.131 14.5 161.5 C 14.182 161.041 13.75 160 13.75 160 "/>
  <path id="ID0.612758981063962" fill="none" stroke="#FFEB97" stroke-width="2" stroke-linecap="round" d="M 139.5 167.5 C 139.5 167.5 140.862 166.883 141.5 166.5 C 142.114 166.132 142.709 165.719 143.25 165.25 C 143.962 164.633 144.662 163.985 145.25 163.25 C 145.669 162.726 146.061 162.144 146.25 161.5 C 146.486 160.697 146.454 159.835 146.5 159 C 146.537 158.335 146.458 157.665 146.5 157 C 146.542 156.33 146.667 155.666 146.75 155 C 146.771 154.833 146.75 155 146.75 155 "/>
  <path id="ID0.4744836245663464" fill="none" stroke="#FFEB97" stroke-width="2" stroke-linecap="round" d="M 143.75 165 C 143.75 165 144.452 163.682 144.75 163 C 145.035 162.348 145.299 161.682 145.5 161 C 145.717 160.264 145.793 159.489 146 158.75 C 146.376 157.406 146.976 156.118 147.25 154.75 C 147.479 153.604 147.5 151.25 147.5 151.25 "/>
</svg>