<svg version="1.1" xmlns="http://www.w3.org/2000/svg" xmlns:xlink="http://www.w3.org/1999/xlink" width="48.84467" height="15.90306"><g transform="translate(-215.77022,-173.02948)"><g data-paper-data="{&quot;isPaintingLayer&quot;:true}" fill="none" fill-rule="nonzero" stroke="none" stroke-width="0" stroke-linecap="butt" stroke-linejoin="round" stroke-miterlimit="10" stroke-dasharray="" stroke-dashoffset="0" font-family="none" font-weight="none" font-size="none" text-anchor="none" style="mix-blend-mode: normal"><g data-paper-data="{&quot;origPos&quot;:null}"><path d="M223.51051,175.5305c0.64889,-1.4755 2.04935,-2.50102 3.67649,-2.50102c2.24323,0 4.06382,1.94332 4.06382,4.33778c0,4.71571 -4.77458,6.17797 -7.74031,10.96411c-3.1369,-4.81577 -7.74029,-6.09293 -7.74029,-10.96411c0,-2.39446 1.82059,-4.33778 4.06382,-4.33778c1.62716,0 3.02762,1.02552 3.67647,2.50102z" data-paper-data="{&quot;origPos&quot;:null}" id="ID0.2874125149101019" fill="#e30000"/><path d="M240.34283,176.13166c0.64889,-1.47549 2.04935,-2.50101 3.6765,-2.50101c2.24323,0 4.06382,1.94332 4.06382,4.33778c0,4.71571 -4.77458,6.17797 -7.74032,10.96411c-3.1369,-4.81577 -7.74029,-6.09293 -7.74029,-10.96411c0,-2.39446 1.82059,-4.33778 4.06382,-4.33778c1.62716,0 3.02761,1.02552 3.67647,2.50101z" data-paper-data="{&quot;origPos&quot;:null}" id="ID0.2874125149101019" fill="#e30000"/><path d="M256.87458,176.13165c0.64889,-1.47549 2.04935,-2.50101 3.67649,-2.50101c2.24323,0 4.06382,1.94332 4.06382,4.33778c0,4.71571 -4.77458,6.17797 -7.74032,10.96411c-3.1369,-4.81577 -7.74029,-6.09293 -7.74029,-10.96411c0,-2.39446 1.82059,-4.33778 4.06382,-4.33778c1.62715,0 3.02761,1.02552 3.67647,2.50101z" data-paper-data="{&quot;origPos&quot;:null}" id="ID0.2874125149101019" fill="#e30000"/></g></g></g></svg>