<svg xmlns="http://www.w3.org/2000/svg" xmlns:xlink="http://www.w3.org/1999/xlink" version="1.1" width="54.29999923706055" height="54.29999923706055" viewBox="0.9000000953674316 0.9500000476837158 54.29999923706055 54.29999923706055">
  <!-- Exported by Scratch - http://scratch.mit.edu/ -->
  <path id="ID0.9796598572283983" fill="#FFFADE" stroke="none" d="M 4.25 3.7 L 53 3.7 L 53 53.1 L 4.25 53.1 L 4.25 3.7 Z " stroke-width="1"/>
  <g id="ID0.36033830093219876">
    <path id="ID0.436717442702502" fill="#B2B2B2" stroke="#666666" stroke-width="1.999999990226712" stroke-linecap="round" d="M 40.5261 28.9888 L 36.5448 36.8166 L 32.0606 41.6784 L 29.7124 33.2279 L 28.2772 36.0774 L 19.0312 30.3238 L 28.2784 27.5539 L 29.2458 26.7375 L 29.6907 17.0127 L 36.4747 22.265 L 44.3778 20.6553 L 40.5261 28.9888 Z "/>
  </g>
  <g id="ID0.36033830093219876">
    <path id="ID0.436717442702502" fill="#B2B2B2" stroke="#666666" stroke-width="2.000000018819975" stroke-linecap="round" d="M 39.0306 25.7218 L 45.2712 29.8349 L 38.691 35.0624 L 38.6763 41.2156 L 31.8082 34.8181 L 23.924 38.4734 L 25.9039 33.0005 L 20.1675 29.7349 L 28.1453 29.4398 L 23.6463 20.8068 L 32.1505 21.9419 L 38.1764 16.5811 L 39.0306 25.7218 Z "/>
  </g>
  <path id="ID0.3867268990725279" fill="none" stroke="#000000" stroke-width="4" d="M 2.9 2.95 L 53.2 2.95 L 53.2 53.25 L 2.9 53.25 L 2.9 2.95 Z "/>
  <g id="ID0.8924102364107966">
    <path id="ID0.2859082077629864" fill="#CF7501" stroke="#CF7501" stroke-width="1.4473673196888548" d="M 29.2243 25.5788 C 30.2201 25.5788 31.1228 25.985 31.777 26.6413 C 32.4305 27.2984 32.8349 28.2049 32.8349 29.205 C 32.8349 30.2051 32.4305 31.1117 31.777 31.7688 C 31.1228 32.4251 30.2201 32.8312 29.2243 32.8312 C 28.2285 32.8312 27.3258 32.4251 26.6716 31.7688 C 26.0181 31.1117 25.6137 30.2051 25.6137 29.205 C 25.6137 28.2049 26.0181 27.2984 26.6716 26.6413 C 27.3258 25.985 28.2285 25.5788 29.2243 25.5788 Z "/>
    <path id="ID0.6709495121613145" fill="#CF7501" stroke="#CC7700" stroke-width="1.4940530061721802" d="M 17.9946 25.5338 L 28.8265 25.5338 L 28.8265 32.9294 L 17.9946 32.9294 L 17.9946 25.5338 Z "/>
    <path id="ID0.059100625570863485" fill="#B46603" stroke="none" d="M 17.2979 32.1004 L 29.3549 32.1004 L 29.3549 33.6917 L 17.2979 33.6917 L 17.2979 32.1004 Z " stroke-width="1.2240651845932007"/>
    <path id="ID0.7237945105880499" fill="#B46603" stroke="none" d="M 17.2979 30.7539 L 29.5385 30.7539 L 29.5385 32.59 L 17.2979 32.59 L 17.2979 30.7539 Z " stroke-width="1.2240651845932007"/>
    <path id="ID0.3554691867902875" fill="none" stroke="#B46603" stroke-width="1.2240651845932007" stroke-linecap="round" d="M 29.2325 32.8348 C 29.421 32.8703 30.1824 32.7137 30.579 32.5288 C 30.9437 32.3354 31.2522 32.0392 31.5582 31.7332 C 31.803 31.366 31.803 30.8763 32.0479 30.5091 C 32.1091 30.2643 32.4763 29.8359 32.4763 29.8359 C 32.9659 30.0195 32.5828 30.8898 32.3539 31.3048 C 32.1543 31.6659 31.9928 32.0747 31.6806 32.3452 C 31.3563 32.6255 30.9291 32.7749 30.5178 32.896 C 30.224 32.983 29.5948 32.983 29.5997 32.9572 Z "/>
    <path id="ID0.19690823648124933" fill="none" stroke="#B46603" stroke-width="1.2240651845932007" stroke-linecap="round" d="M 28.4369 31.8556 C 28.4369 31.8556 29.6683 31.7809 30.273 31.672 C 30.6916 31.5961 31.0931 31.4394 31.497 31.3048 C 31.7051 31.235 32.1091 31.0599 32.1091 31.0599 "/>
    <path id="ID0.9434709856286645" fill="none" stroke="#B46603" stroke-width="1.2240651845932007" stroke-linecap="round" d="M 29.3549 31.1211 C 29.3549 31.1211 30.2705 31.1285 30.7014 30.9987 C 31.1029 30.8776 31.4542 30.6193 31.803 30.3867 C 32.1286 30.17 32.7211 29.6523 32.7211 29.6523 "/>
    <path id="ID0.5868821502663195" fill="#A55E03" stroke="none" d="M 17.3591 31.9168 L 29.1101 31.9168 L 29.1101 32.896 L 17.3591 32.896 L 17.3591 31.9168 Z " stroke-width="1.2240651845932007"/>
  </g>
  <path id="ID0.5117974788881838" fill="none" stroke="#CCCCCC" stroke-width="2" stroke-linecap="round" d="M 13.95 26.8 L 9.65 26.8 "/>
  <path id="ID0.7563930791802704" fill="none" stroke="#CCCCCC" stroke-width="2" stroke-linecap="round" d="M 11.3 29.75 L 6.05 29.75 "/>
  <path id="ID0.967230430804193" fill="none" stroke="#CCCCCC" stroke-width="2" stroke-linecap="round" d="M 12.8 32.8 L 8.65 32.8 "/>
</svg>