<svg xmlns="http://www.w3.org/2000/svg" xmlns:xlink="http://www.w3.org/1999/xlink" version="1.1" width="51.599998474121094" height="27.5" viewBox="0.25 0.10000002384185791 51.599998474121094 27.5">
  <!-- Exported by Scratch - http://scratch.mit.edu/ -->
  <g id="ID0.7203339748084545">
    <path id="ID0.08161163376644254" fill="#FFFFFF" stroke="#000000" stroke-width="3" d="M 14 1.6 C 17.38 1.6 20.442 2.973 22.66 5.19 C 24.877 7.408 26.25 10.47 26.25 13.85 C 26.25 17.23 24.877 20.292 22.66 22.51 C 20.442 24.727 17.38 26.1 14 26.1 C 10.62 26.1 7.558 24.727 5.34 22.51 C 3.123 20.292 1.75 17.23 1.75 13.85 C 1.75 10.47 3.123 7.408 5.34 5.19 C 7.558 2.973 10.62 1.6 14 1.6 Z "/>
    <path id="ID0.13923896756023169" fill="none" stroke="#000000" stroke-width="3" stroke-linecap="round" d="M 19.1 2.45 L 36.65 12.95 "/>
    <path id="ID0.2729104966856539" fill="none" stroke="#000000" stroke-width="3" stroke-linecap="round" d="M 19 25.2 L 36.95 18.75 "/>
    <path id="ID0.16589416423812509" fill="#3A3A3A" stroke="none" d="M 31.85 13.05 L 50.35 13.05 L 50.35 18.9 L 31.85 18.9 L 31.85 13.05 Z " stroke-width="1"/>
  </g>
</svg>